<svg xmlns="http://www.w3.org/2000/svg" width="512" height="512" viewBox="0 0 512 512">
  <rect width="512" height="512" rx="100" fill="#1d4ed8" />
  <g transform="translate(128, 128) scale(0.5)">
    <!-- Controlador de juego estilizado -->
    <path d="M448 127.1c-44.18 0-79.1 35.82-79.1 80v96c0 44.18 35.82 80 79.1 80s79.1-35.82 79.1-80v-96C528 163.8 492.2 127.1 448 127.1zM448 351.1c-26.47 0-48-21.53-48-48v-96c0-26.47 21.53-48 48-48s48 21.53 48 48v96C496 330.5 474.5 351.1 448 351.1zM64 127.1c-44.18 0-79.1 35.82-79.1 80v96c0 44.18 35.82 80 79.1 80s79.1-35.82 79.1-80v-96C144 163.8 108.2 127.1 64 127.1zM64 351.1c-26.47 0-48-21.53-48-48v-96c0-26.47 21.53-48 48-48s48 21.53 48 48v96C112 330.5 90.47 351.1 64 351.1zM368 191.1h-224c-8.836 0-16 7.164-16 15.1v95.1c0 8.836 7.164 16 16 16h224c8.836 0 16-7.164 16-16v-95.1C384 199.2 376.8 191.1 368 191.1zM256 271.1c-8.836 0-16-7.164-16-15.1c0-8.838 7.164-16 16-16s16 7.162 16 16C272 264.8 264.8 271.1 256 271.1z" fill="white" />
  </g>
  <!-- Letras "FP" estilizadas -->
  <text x="256" y="256" font-family="Arial, sans-serif" font-size="160" font-weight="bold" fill="white" text-anchor="middle" dominant-baseline="central">FP</text>
</svg>